HIERARCHY
ROOT Hips
{
	OFFSET 0.000000 0.000000 0.000000
	CHANNELS 6 Xposition Yposition Zposition Xrotation Yrotation Zrotation
	JOINT LeftUpLeg_virtual
	{
		OFFSET 0.000000 0.000000 0.000000
		CHANNELS 3 Xrotation Yrotation Zrotation
		JOINT LeftUpLeg
		{
			OFFSET 13.026900 -6.336304 -1.092800
			CHANNELS 3 Xrotation Yrotation Zrotation
			JOINT LeftLeg
			{
				OFFSET 0.524474 -46.096886 9.782700
				CHANNELS 3 Xrotation Yrotation Zrotation
				JOINT LeftFoot
				{
					OFFSET -0.524474 -53.427422 -12.948200
					CHANNELS 3 Xrotation Yrotation Zrotation
					JOINT LeftToeBase
					{
						OFFSET 0.192200 -14.009700 16.364100
						CHANNELS 3 Xrotation Yrotation Zrotation
						JOINT LeftToe_End
						{
							OFFSET -1.784700 -0.561700 9.474800
							CHANNELS 3 Xrotation Yrotation Zrotation
							End Site
							{
								OFFSET 0 0 0
							}
						}
					}
				}
			}
		}
	}
	JOINT RightUpLeg_virtual
	{
		OFFSET 0.000000 0.000000 0.000000
		CHANNELS 3 Xrotation Yrotation Zrotation
		JOINT RightUpLeg
		{
			OFFSET -12.883000 -6.336304 -1.092800
			CHANNELS 3 Xrotation Yrotation Zrotation
			JOINT RightLeg
			{
				OFFSET -0.524587 -46.096825 9.782800
				CHANNELS 3 Xrotation Yrotation Zrotation
				JOINT RightFoot
				{
					OFFSET 0.524587 -53.427383 -12.948300
					CHANNELS 3 Xrotation Yrotation Zrotation
					JOINT RightToeBase
					{
						OFFSET -0.192200 -14.009700 16.364100
						CHANNELS 3 Xrotation Yrotation Zrotation
						JOINT RightToe_End
						{
							OFFSET 1.784700 -0.561700 9.474800
							CHANNELS 3 Xrotation Yrotation Zrotation
							End Site
							{
								OFFSET 0 0 0
							}
						}
					}
				}
			}
		}
	}
	JOINT Spine_virtual
	{
		OFFSET 0.000000 0.000000 0.000000
		CHANNELS 3 Xrotation Yrotation Zrotation
		JOINT Spine
		{
			OFFSET 0.072000 7.257294 -0.789700
			CHANNELS 3 Xrotation Yrotation Zrotation
			JOINT Spine1
			{
				OFFSET 0.000000 12.508769 -0.658067
				CHANNELS 3 Xrotation Yrotation Zrotation
				JOINT Spine1_split
				{
					OFFSET 0.000000 12.508769 -0.658067
					CHANNELS 3 Xrotation Yrotation Zrotation
					JOINT Spine2
					{
						OFFSET 0.000000 12.508769 -0.658067
						CHANNELS 3 Xrotation Yrotation Zrotation
						JOINT Neck_virtual
						{
							OFFSET 0.000000 0.000000 0.000000
							CHANNELS 3 Xrotation Yrotation Zrotation
							JOINT Neck
							{
								OFFSET 0.000000 14.033295 7.520400
								CHANNELS 3 Xrotation Yrotation Zrotation
								JOINT Head
								{
									OFFSET 0.000000 8.198502 5.703100
									CHANNELS 3 Xrotation Yrotation Zrotation
									JOINT HeadTop_End
									{
										OFFSET 0.000000 17.760803 13.332701
										CHANNELS 3 Xrotation Yrotation Zrotation
										End Site
										{
											OFFSET 0 0 0
										}
									}
								}
							}
						}
						JOINT LeftShoulder_virtual
						{
							OFFSET 0.000000 0.000000 0.000000
							CHANNELS 3 Xrotation Yrotation Zrotation
							JOINT LeftShoulder
							{
								OFFSET 6.292450 5.785301 -0.669000
								CHANNELS 3 Xrotation Yrotation Zrotation
								JOINT LeftShoulder_split
								{
									OFFSET 6.292450 5.785301 -0.669000
									CHANNELS 3 Xrotation Yrotation Zrotation
									JOINT LeftArm
									{
										OFFSET 13.907140 -6.093903 1.965100
										CHANNELS 3 Xrotation Yrotation Zrotation
										JOINT LeftForeArm
										{
											OFFSET 34.140198 0.000000 0.000000
											CHANNELS 3 Xrotation Yrotation Zrotation
											JOINT LeftHand
											{
												OFFSET 40.960209 0.000000 0.000000
												CHANNELS 3 Xrotation Yrotation Zrotation
												End Site
												{
													OFFSET 0 0 0
												}
											}
										}
									}
								}
							}
						}
						JOINT RightShoulder_virtual
						{
							OFFSET 0.000000 0.000000 0.000000
							CHANNELS 3 Xrotation Yrotation Zrotation
							JOINT RightShoulder
							{
								OFFSET -6.292450 5.785301 -0.669000
								CHANNELS 3 Xrotation Yrotation Zrotation
								JOINT RightShoulder_split
								{
									OFFSET -6.292450 5.785301 -0.669000
									CHANNELS 3 Xrotation Yrotation Zrotation
									JOINT RightArm
									{
										OFFSET -13.907140 -6.093903 1.965100
										CHANNELS 3 Xrotation Yrotation Zrotation
										JOINT RightForeArm
										{
											OFFSET -34.140198 0.000000 0.000000
											CHANNELS 3 Xrotation Yrotation Zrotation
											JOINT RightHand
											{
												OFFSET -40.960209 0.000000 0.000000
												CHANNELS 3 Xrotation Yrotation Zrotation
												End Site
												{
													OFFSET 0 0 0
												}
											}
										}
									}
								}
							}
						}
					}
				}
			}
		}
	}
}
MOTION
Frames: 4
Frame Time: 0.03333333
7.169740 29.306583 -2.742012 0.000000 0.000000 0.000000 -84.189226 -5.925704 -10.258539 -12.679860 35.948167 5.543222 18.604406 23.659898 -14.836660 9.867382 -16.325651 17.017343 17.665458 -0.754500 9.114149 0.000000 0.000000 0.000000 -81.879201 -4.629524 -9.859155 -29.559720 -33.253415 -16.545875 18.649087 -8.909770 2.715902 16.540107 -1.614579 -12.189337 15.548249 -8.083109 -24.740511 0.000000 0.000000 0.000000 -84.272049 -5.363599 -11.373652 9.221607 0.549248 -3.484029 4.098771 -3.628670 0.475469 -0.023487 0.942103 -0.260171 0.000000 0.000000 0.000000 0.765994 -0.643523 2.543203 -10.308592 -7.173739 5.773022 19.608980 -80.651871 30.093055 0.000000 0.000000 0.000000 -4.654438 -0.088919 -1.594834 -0.641785 -10.925951 5.953471 0.691610 2.278840 -7.586441 46.732441 0.405541 -52.649612 -167.259066 -49.904637 -175.931453 0.000000 0.000000 0.000000 1.296844 -1.956761 -2.284530 -0.122946 -5.243258 1.352455 -12.506830 -3.447960 8.915417 24.005040 20.514975 61.524363 -175.197016 36.235380 -177.108841 0.000000 0.000000 0.000000 
7.167061 29.301910 -2.724052 0.000000 0.000000 0.000000 -84.171140 -5.946496 -10.277077 -12.728702 35.961988 5.587607 18.673025 23.645201 -14.859659 9.864899 -16.362449 17.019341 17.647868 -0.752068 9.106857 0.000000 0.000000 0.000000 -81.866524 -4.649584 -9.878979 -29.581624 -33.293450 -16.553312 18.678508 -8.862401 2.709191 16.509578 -1.599503 -12.195205 15.572964 -8.090577 -24.759468 0.000000 0.000000 0.000000 -84.249284 -5.385263 -11.396268 9.226382 0.538036 -3.472931 4.123425 -3.633032 0.479895 -0.023260 0.943815 -0.260315 0.000000 0.000000 0.000000 0.780208 -0.648032 2.547800 -10.298617 -7.174899 5.842085 19.398605 -80.661665 29.899795 0.000000 0.000000 0.000000 -4.648140 -0.094487 -1.595736 -0.651543 -10.927536 5.953447 0.658932 2.313336 -7.565039 46.691897 0.529719 -52.718730 -167.334157 -49.727527 -176.028783 0.000000 0.000000 0.000000 1.305588 -1.961675 -2.285271 -0.119461 -5.220283 1.345348 -12.588308 -3.440282 8.907648 24.000935 20.479346 61.521891 -175.137170 36.170845 -177.173372 0.000000 0.000000 0.000000 
7.165257 29.295101 -2.708321 0.000000 0.000000 0.000000 -84.156475 -5.957544 -10.295241 -12.784243 35.987328 5.636815 18.738995 23.625643 -14.880518 9.860531 -16.408013 17.022993 17.628652 -0.748502 9.101265 0.000000 0.000000 0.000000 -81.856197 -4.662664 -9.899513 -29.605725 -33.339116 -16.561785 18.708873 -8.823812 2.704831 16.477917 -1.589201 -12.208945 15.593040 -8.097286 -24.778043 0.000000 0.000000 0.000000 -84.224640 -5.400936 -11.418348 9.233730 0.526472 -3.456533 4.142956 -3.636166 0.482151 -0.024615 0.945793 -0.261230 0.000000 0.000000 0.000000 0.791272 -0.651308 2.549027 -10.298454 -7.171789 5.909636 19.237807 -80.672744 29.759240 0.000000 0.000000 0.000000 -4.643616 -0.098504 -1.597380 -0.662071 -10.924064 5.957625 0.627905 2.341002 -7.535986 46.603610 0.646713 -52.753205 -167.393484 -49.579950 -176.106101 0.000000 0.000000 0.000000 1.311989 -1.965326 -2.288270 -0.118295 -5.205548 1.352393 -12.645410 -3.428965 8.898955 23.998479 20.462852 61.508743 -175.081586 36.103560 -177.227822 0.000000 0.000000 0.000000 
7.164460 29.286327 -2.695141 0.000000 0.000000 0.000000 -84.143450 -5.960997 -10.310516 -12.845970 36.017309 5.684453 18.805251 23.606293 -14.899428 9.859057 -16.458895 17.028838 17.605767 -0.744079 9.097219 0.000000 0.000000 0.000000 -81.844210 -4.668835 -9.916845 -29.627240 -33.383533 -16.571144 18.731357 -8.793146 2.700660 16.443166 -1.583427 -12.231504 15.610527 -8.103527 -24.792909 0.000000 0.000000 0.000000 -84.197675 -5.411600 -11.438020 9.244335 0.515039 -3.440494 4.158840 -3.637986 0.482640 -0.026920 0.948781 -0.262345 0.000000 0.000000 0.000000 0.799112 -0.653733 2.546421 -10.303415 -7.168015 5.977050 19.129219 -80.686179 29.675977 0.000000 0.000000 0.000000 -4.640491 -0.100659 -1.600184 -0.671695 -10.917839 5.963708 0.606307 2.353303 -7.507998 46.502568 0.720158 -52.749069 -167.434711 -49.502745 -176.164512 0.000000 0.000000 0.000000 1.319659 -1.967015 -2.293660 -0.120462 -5.203195 1.367181 -12.677985 -3.418680 8.879112 23.998532 20.468779 61.486244 -175.037463 36.028264 -177.268585 0.000000 0.000000 0.000000 
